# xmcd
#
# Track frame offsets: 
#        150
#        20757
#        37211
#        52738
#        68703
#        83610
#        101353
#        118375
#        133896
#        153913
#
# Disc length: 2298 seconds
#
# Revision: 0
# Processed by: cddbd v1.5.2PL0 Copyright (c) Steve Scherf et al.
# Submitted via: ExactAudioCopyFreeDBPlugin 1.0
#
DISCID=8208f80a
DTITLE=Susan Gibson - Tightrope
DYEAR=2011
DGENRE=Americana
TTITLE0=Evergreen
TTITLE1=Hope Diamond
TTITLE2=It's Raining Outside Today, Hooray!
TTITLE3=Tightrope
TTITLE4=Happy with Nothing
TTITLE5=Lovely When You Cry
TTITLE6=A Stray
TTITLE7=Oil and Water
TTITLE8=The Wood Wouldn't Burn
TTITLE9=Passin' Thru
EXTD=
EXTT0=
EXTT1=
EXTT2=
EXTT3=
EXTT4=
EXTT5=
EXTT6=
EXTT7=
EXTT8=
EXTT9=
PLAYORDER=
